<?xml version="1.0" standalone="no"?>
<!DOCTYPE svg PUBLIC "-//W3C//DTD SVG 20010904//EN"
 "http://www.w3.org/TR/2001/REC-SVG-20010904/DTD/svg10.dtd">
<svg version="1.0" xmlns="http://www.w3.org/2000/svg"
 width="1280.000000pt" height="640.000000pt" viewBox="0 0 1280.000000 640.000000"
 preserveAspectRatio="xMidYMid meet">
<metadata>
Created by potrace 1.15, written by Peter Selinger 2001-2017
</metadata>
<g transform="translate(0.000000,640.000000) scale(0.100000,-0.100000)"
fill="#000000" stroke="none">
<path d="M10995 6353 c-519 -37 -975 -216 -1280 -505 -220 -208 -316 -436
-286 -675 20 -162 88 -299 207 -418 67 -67 203 -163 292 -205 28 -14 52 -27
52 -30 0 -3 -483 -90 -1073 -194 -1217 -214 -1371 -243 -1551 -292 -279 -77
-478 -151 -736 -274 -91 -44 -201 -90 -244 -104 l-80 -25 -440 60 c-243 33
-706 96 -1031 140 -324 44 -756 102 -960 130 -203 27 -433 58 -510 69 -77 11
-342 47 -590 80 -247 33 -513 69 -590 80 -998 139 -1215 162 -1422 148 -232
-15 -454 -118 -648 -300 -80 -74 -111 -116 -98 -129 5 -5 216 -59 469 -120
252 -60 572 -136 709 -169 138 -33 401 -96 585 -140 184 -44 448 -107 585
-140 138 -33 392 -94 565 -135 950 -228 1112 -265 1121 -260 14 9 93 -5 82
-15 -4 -4 -71 -28 -148 -53 -147 -47 -898 -292 -1312 -428 -134 -43 -353 -115
-488 -159 -135 -44 -354 -116 -487 -159 -134 -44 -342 -112 -463 -151 -121
-40 -328 -107 -460 -150 -132 -43 -318 -104 -412 -135 -104 -34 -173 -61 -173
-69 0 -24 98 -153 157 -205 67 -60 150 -104 243 -127 122 -31 194 -21 1295
179 946 173 4029 732 4370 793 l150 26 145 -46 c350 -113 628 -171 1255 -260
885 -126 1462 -182 2082 -202 178 -6 204 -9 187 -21 -315 -221 -437 -401 -451
-668 -15 -272 131 -515 430 -715 261 -175 582 -284 943 -320 152 -16 488 -8
634 15 471 73 894 304 1072 585 145 229 142 520 -9 747 -87 131 -252 276 -437
381 -195 112 -447 195 -701 232 -44 6 -170 32 -280 57 -853 192 -1509 299
-2278 373 -712 69 -1015 131 -1294 266 -126 61 -169 98 -207 179 -68 143 -27
279 114 375 199 135 483 257 745 319 96 23 210 53 475 125 91 24 282 76 425
115 143 38 620 167 1060 286 777 210 921 248 1130 295 201 45 431 136 598 236
161 97 353 267 433 384 151 219 176 477 70 703 -85 184 -243 326 -490 442
-306 144 -665 205 -1051 178z m340 -403 c612 -87 877 -530 526 -880 -213 -212
-501 -324 -888 -346 -384 -22 -767 131 -895 357 -39 68 -51 128 -46 226 6 116
41 192 138 295 213 229 552 354 965 357 72 0 162 -4 200 -9z m-94 -4270 c399
-41 735 -241 811 -482 98 -316 -191 -615 -690 -715 -124 -25 -451 -25 -576 0
-317 64 -583 226 -669 409 -210 444 386 862 1124 788z"/>
</g>
</svg>
